<mxfile host="app.diagrams.net" modified="2023-03-24T15:31:15.366Z" agent="Mozilla/5.0 (Windows NT 10.0; Win64; x64; rv:109.0) Gecko/20100101 Firefox/111.0" etag="Oa42ivJvDS-qEzh8uJyL" version="21.1.0" type="device">
  <diagram name="Page-1" id="2ca16b54-16f6-2749-3443-fa8db7711227">
    <mxGraphModel dx="1902" dy="558" grid="1" gridSize="10" guides="1" tooltips="1" connect="1" arrows="1" fold="1" page="0" pageScale="1" pageWidth="1100" pageHeight="850" background="none" math="0" shadow="0">
      <root>
        <mxCell id="0" />
        <mxCell id="1" parent="0" />
        <mxCell id="2sXb2ntrMHZdO7eoZhYg-17" style="edgeStyle=orthogonalEdgeStyle;rounded=0;orthogonalLoop=1;jettySize=auto;html=1;entryX=0;entryY=0.5;entryDx=0;entryDy=0;" edge="1" parent="1" source="2sXb2ntrMHZdO7eoZhYg-1" target="2sXb2ntrMHZdO7eoZhYg-10">
          <mxGeometry relative="1" as="geometry">
            <Array as="points">
              <mxPoint x="40" y="520" />
              <mxPoint x="40" y="335" />
            </Array>
          </mxGeometry>
        </mxCell>
        <mxCell id="2sXb2ntrMHZdO7eoZhYg-18" style="edgeStyle=orthogonalEdgeStyle;rounded=0;orthogonalLoop=1;jettySize=auto;html=1;entryX=0;entryY=0.5;entryDx=0;entryDy=0;" edge="1" parent="1" source="2sXb2ntrMHZdO7eoZhYg-1" target="2sXb2ntrMHZdO7eoZhYg-11">
          <mxGeometry relative="1" as="geometry" />
        </mxCell>
        <mxCell id="2sXb2ntrMHZdO7eoZhYg-20" style="edgeStyle=orthogonalEdgeStyle;rounded=0;orthogonalLoop=1;jettySize=auto;html=1;entryX=0;entryY=0.5;entryDx=0;entryDy=0;" edge="1" parent="1" source="2sXb2ntrMHZdO7eoZhYg-1" target="2sXb2ntrMHZdO7eoZhYg-14">
          <mxGeometry relative="1" as="geometry" />
        </mxCell>
        <mxCell id="2sXb2ntrMHZdO7eoZhYg-21" style="edgeStyle=orthogonalEdgeStyle;rounded=0;orthogonalLoop=1;jettySize=auto;html=1;entryX=0;entryY=0.5;entryDx=0;entryDy=0;" edge="1" parent="1" source="2sXb2ntrMHZdO7eoZhYg-1" target="2sXb2ntrMHZdO7eoZhYg-13">
          <mxGeometry relative="1" as="geometry" />
        </mxCell>
        <mxCell id="2sXb2ntrMHZdO7eoZhYg-22" style="edgeStyle=orthogonalEdgeStyle;rounded=0;orthogonalLoop=1;jettySize=auto;html=1;entryX=0;entryY=0.5;entryDx=0;entryDy=0;" edge="1" parent="1" source="2sXb2ntrMHZdO7eoZhYg-1" target="2sXb2ntrMHZdO7eoZhYg-12">
          <mxGeometry relative="1" as="geometry" />
        </mxCell>
        <mxCell id="2sXb2ntrMHZdO7eoZhYg-25" style="edgeStyle=orthogonalEdgeStyle;rounded=0;orthogonalLoop=1;jettySize=auto;html=1;entryX=0;entryY=0.5;entryDx=0;entryDy=0;" edge="1" parent="1" source="2sXb2ntrMHZdO7eoZhYg-1" target="2sXb2ntrMHZdO7eoZhYg-23">
          <mxGeometry relative="1" as="geometry" />
        </mxCell>
        <mxCell id="2sXb2ntrMHZdO7eoZhYg-27" style="edgeStyle=orthogonalEdgeStyle;rounded=0;orthogonalLoop=1;jettySize=auto;html=1;entryX=0;entryY=0.5;entryDx=0;entryDy=0;" edge="1" parent="1" source="2sXb2ntrMHZdO7eoZhYg-1" target="2sXb2ntrMHZdO7eoZhYg-26">
          <mxGeometry relative="1" as="geometry" />
        </mxCell>
        <mxCell id="2sXb2ntrMHZdO7eoZhYg-1" value="Actor" style="shape=umlActor;verticalLabelPosition=bottom;verticalAlign=top;html=1;outlineConnect=0;" vertex="1" parent="1">
          <mxGeometry x="-40" y="490" width="30" height="60" as="geometry" />
        </mxCell>
        <mxCell id="2sXb2ntrMHZdO7eoZhYg-7" value="&lt;div&gt;PROFESOR&lt;/div&gt;&lt;div&gt;&lt;br&gt;&lt;/div&gt;" style="text;html=1;align=center;verticalAlign=middle;resizable=0;points=[];autosize=1;strokeColor=none;fillColor=none;" vertex="1" parent="1">
          <mxGeometry x="-70" y="440" width="90" height="40" as="geometry" />
        </mxCell>
        <mxCell id="2sXb2ntrMHZdO7eoZhYg-10" value="Autentificare" style="ellipse;whiteSpace=wrap;html=1;" vertex="1" parent="1">
          <mxGeometry x="90" y="310" width="90" height="50" as="geometry" />
        </mxCell>
        <mxCell id="2sXb2ntrMHZdO7eoZhYg-11" value="Creare curs" style="ellipse;whiteSpace=wrap;html=1;" vertex="1" parent="1">
          <mxGeometry x="90" y="435" width="90" height="50" as="geometry" />
        </mxCell>
        <mxCell id="2sXb2ntrMHZdO7eoZhYg-12" value="Creare test" style="ellipse;whiteSpace=wrap;html=1;" vertex="1" parent="1">
          <mxGeometry x="90" y="560" width="90" height="50" as="geometry" />
        </mxCell>
        <mxCell id="2sXb2ntrMHZdO7eoZhYg-13" value="Vizualizare rezultate test" style="ellipse;whiteSpace=wrap;html=1;" vertex="1" parent="1">
          <mxGeometry x="90" y="690" width="90" height="50" as="geometry" />
        </mxCell>
        <mxCell id="2sXb2ntrMHZdO7eoZhYg-14" value="Adăugare întrebare la test" style="ellipse;whiteSpace=wrap;html=1;" vertex="1" parent="1">
          <mxGeometry x="90" y="630" width="90" height="50" as="geometry" />
        </mxCell>
        <mxCell id="2sXb2ntrMHZdO7eoZhYg-23" value="Editare test" style="ellipse;whiteSpace=wrap;html=1;" vertex="1" parent="1">
          <mxGeometry x="90" y="495" width="90" height="50" as="geometry" />
        </mxCell>
        <mxCell id="2sXb2ntrMHZdO7eoZhYg-26" value="Ștergere test" style="ellipse;whiteSpace=wrap;html=1;" vertex="1" parent="1">
          <mxGeometry x="90" y="370" width="90" height="50" as="geometry" />
        </mxCell>
        <mxCell id="2sXb2ntrMHZdO7eoZhYg-42" style="edgeStyle=orthogonalEdgeStyle;rounded=0;orthogonalLoop=1;jettySize=auto;html=1;entryX=1;entryY=0.5;entryDx=0;entryDy=0;" edge="1" parent="1" source="2sXb2ntrMHZdO7eoZhYg-28" target="2sXb2ntrMHZdO7eoZhYg-10">
          <mxGeometry relative="1" as="geometry" />
        </mxCell>
        <mxCell id="2sXb2ntrMHZdO7eoZhYg-43" style="edgeStyle=orthogonalEdgeStyle;rounded=0;orthogonalLoop=1;jettySize=auto;html=1;entryX=1;entryY=0.5;entryDx=0;entryDy=0;" edge="1" parent="1" source="2sXb2ntrMHZdO7eoZhYg-28" target="2sXb2ntrMHZdO7eoZhYg-26">
          <mxGeometry relative="1" as="geometry" />
        </mxCell>
        <mxCell id="2sXb2ntrMHZdO7eoZhYg-46" style="edgeStyle=orthogonalEdgeStyle;rounded=0;orthogonalLoop=1;jettySize=auto;html=1;entryX=1;entryY=0.5;entryDx=0;entryDy=0;" edge="1" parent="1" source="2sXb2ntrMHZdO7eoZhYg-28" target="2sXb2ntrMHZdO7eoZhYg-12">
          <mxGeometry relative="1" as="geometry" />
        </mxCell>
        <mxCell id="2sXb2ntrMHZdO7eoZhYg-47" style="edgeStyle=orthogonalEdgeStyle;rounded=0;orthogonalLoop=1;jettySize=auto;html=1;entryX=1;entryY=0.5;entryDx=0;entryDy=0;" edge="1" parent="1" source="2sXb2ntrMHZdO7eoZhYg-28" target="2sXb2ntrMHZdO7eoZhYg-14">
          <mxGeometry relative="1" as="geometry" />
        </mxCell>
        <mxCell id="2sXb2ntrMHZdO7eoZhYg-48" style="edgeStyle=orthogonalEdgeStyle;rounded=0;orthogonalLoop=1;jettySize=auto;html=1;entryX=1;entryY=0.5;entryDx=0;entryDy=0;" edge="1" parent="1" source="2sXb2ntrMHZdO7eoZhYg-28" target="2sXb2ntrMHZdO7eoZhYg-13">
          <mxGeometry relative="1" as="geometry" />
        </mxCell>
        <mxCell id="2sXb2ntrMHZdO7eoZhYg-50" style="edgeStyle=orthogonalEdgeStyle;rounded=0;orthogonalLoop=1;jettySize=auto;html=1;entryX=1;entryY=0.5;entryDx=0;entryDy=0;" edge="1" parent="1" source="2sXb2ntrMHZdO7eoZhYg-28" target="2sXb2ntrMHZdO7eoZhYg-23">
          <mxGeometry relative="1" as="geometry" />
        </mxCell>
        <mxCell id="2sXb2ntrMHZdO7eoZhYg-51" style="edgeStyle=orthogonalEdgeStyle;rounded=0;orthogonalLoop=1;jettySize=auto;html=1;entryX=1;entryY=0.5;entryDx=0;entryDy=0;" edge="1" parent="1" source="2sXb2ntrMHZdO7eoZhYg-28" target="2sXb2ntrMHZdO7eoZhYg-11">
          <mxGeometry relative="1" as="geometry" />
        </mxCell>
        <mxCell id="2sXb2ntrMHZdO7eoZhYg-52" style="edgeStyle=orthogonalEdgeStyle;rounded=0;orthogonalLoop=1;jettySize=auto;html=1;entryX=0;entryY=0.5;entryDx=0;entryDy=0;" edge="1" parent="1" source="2sXb2ntrMHZdO7eoZhYg-28" target="2sXb2ntrMHZdO7eoZhYg-32">
          <mxGeometry relative="1" as="geometry" />
        </mxCell>
        <mxCell id="2sXb2ntrMHZdO7eoZhYg-53" style="edgeStyle=orthogonalEdgeStyle;rounded=0;orthogonalLoop=1;jettySize=auto;html=1;entryX=0;entryY=0.5;entryDx=0;entryDy=0;" edge="1" parent="1" source="2sXb2ntrMHZdO7eoZhYg-28" target="2sXb2ntrMHZdO7eoZhYg-33">
          <mxGeometry relative="1" as="geometry" />
        </mxCell>
        <mxCell id="2sXb2ntrMHZdO7eoZhYg-54" style="edgeStyle=orthogonalEdgeStyle;rounded=0;orthogonalLoop=1;jettySize=auto;html=1;" edge="1" parent="1" source="2sXb2ntrMHZdO7eoZhYg-28" target="2sXb2ntrMHZdO7eoZhYg-34">
          <mxGeometry relative="1" as="geometry" />
        </mxCell>
        <mxCell id="2sXb2ntrMHZdO7eoZhYg-55" style="edgeStyle=orthogonalEdgeStyle;rounded=0;orthogonalLoop=1;jettySize=auto;html=1;entryX=0;entryY=0.5;entryDx=0;entryDy=0;" edge="1" parent="1" source="2sXb2ntrMHZdO7eoZhYg-28" target="2sXb2ntrMHZdO7eoZhYg-35">
          <mxGeometry relative="1" as="geometry" />
        </mxCell>
        <mxCell id="2sXb2ntrMHZdO7eoZhYg-56" style="edgeStyle=orthogonalEdgeStyle;rounded=0;orthogonalLoop=1;jettySize=auto;html=1;entryX=0;entryY=0.5;entryDx=0;entryDy=0;" edge="1" parent="1" source="2sXb2ntrMHZdO7eoZhYg-28" target="2sXb2ntrMHZdO7eoZhYg-36">
          <mxGeometry relative="1" as="geometry" />
        </mxCell>
        <mxCell id="2sXb2ntrMHZdO7eoZhYg-28" value="Actor" style="shape=umlActor;verticalLabelPosition=bottom;verticalAlign=top;html=1;outlineConnect=0;" vertex="1" parent="1">
          <mxGeometry x="300" y="490" width="30" height="60" as="geometry" />
        </mxCell>
        <mxCell id="2sXb2ntrMHZdO7eoZhYg-29" value="SERVER" style="text;html=1;align=center;verticalAlign=middle;resizable=0;points=[];autosize=1;strokeColor=none;fillColor=none;" vertex="1" parent="1">
          <mxGeometry x="280" y="440" width="70" height="30" as="geometry" />
        </mxCell>
        <mxCell id="2sXb2ntrMHZdO7eoZhYg-37" style="edgeStyle=orthogonalEdgeStyle;rounded=0;orthogonalLoop=1;jettySize=auto;html=1;entryX=1;entryY=0.5;entryDx=0;entryDy=0;" edge="1" parent="1" source="2sXb2ntrMHZdO7eoZhYg-30" target="2sXb2ntrMHZdO7eoZhYg-32">
          <mxGeometry relative="1" as="geometry" />
        </mxCell>
        <mxCell id="2sXb2ntrMHZdO7eoZhYg-38" style="edgeStyle=orthogonalEdgeStyle;rounded=0;orthogonalLoop=1;jettySize=auto;html=1;entryX=1;entryY=0.5;entryDx=0;entryDy=0;" edge="1" parent="1" source="2sXb2ntrMHZdO7eoZhYg-30" target="2sXb2ntrMHZdO7eoZhYg-33">
          <mxGeometry relative="1" as="geometry" />
        </mxCell>
        <mxCell id="2sXb2ntrMHZdO7eoZhYg-39" style="edgeStyle=orthogonalEdgeStyle;rounded=0;orthogonalLoop=1;jettySize=auto;html=1;entryX=1;entryY=0.5;entryDx=0;entryDy=0;" edge="1" parent="1" source="2sXb2ntrMHZdO7eoZhYg-30" target="2sXb2ntrMHZdO7eoZhYg-34">
          <mxGeometry relative="1" as="geometry" />
        </mxCell>
        <mxCell id="2sXb2ntrMHZdO7eoZhYg-40" style="edgeStyle=orthogonalEdgeStyle;rounded=0;orthogonalLoop=1;jettySize=auto;html=1;entryX=1;entryY=0.5;entryDx=0;entryDy=0;" edge="1" parent="1" source="2sXb2ntrMHZdO7eoZhYg-30" target="2sXb2ntrMHZdO7eoZhYg-35">
          <mxGeometry relative="1" as="geometry" />
        </mxCell>
        <mxCell id="2sXb2ntrMHZdO7eoZhYg-41" style="edgeStyle=orthogonalEdgeStyle;rounded=0;orthogonalLoop=1;jettySize=auto;html=1;entryX=1;entryY=0.5;entryDx=0;entryDy=0;" edge="1" parent="1" source="2sXb2ntrMHZdO7eoZhYg-30" target="2sXb2ntrMHZdO7eoZhYg-36">
          <mxGeometry relative="1" as="geometry" />
        </mxCell>
        <mxCell id="2sXb2ntrMHZdO7eoZhYg-30" value="Actor" style="shape=umlActor;verticalLabelPosition=bottom;verticalAlign=top;html=1;outlineConnect=0;" vertex="1" parent="1">
          <mxGeometry x="630" y="490" width="30" height="60" as="geometry" />
        </mxCell>
        <mxCell id="2sXb2ntrMHZdO7eoZhYg-31" value="STUDENT" style="text;html=1;align=center;verticalAlign=middle;resizable=0;points=[];autosize=1;strokeColor=none;fillColor=none;" vertex="1" parent="1">
          <mxGeometry x="605" y="435" width="80" height="30" as="geometry" />
        </mxCell>
        <mxCell id="2sXb2ntrMHZdO7eoZhYg-32" value="Autentificare" style="ellipse;whiteSpace=wrap;html=1;" vertex="1" parent="1">
          <mxGeometry x="440" y="340" width="90" height="50" as="geometry" />
        </mxCell>
        <mxCell id="2sXb2ntrMHZdO7eoZhYg-33" value="Vizualizare cursuri " style="ellipse;whiteSpace=wrap;html=1;" vertex="1" parent="1">
          <mxGeometry x="440" y="410" width="90" height="50" as="geometry" />
        </mxCell>
        <mxCell id="2sXb2ntrMHZdO7eoZhYg-34" value="Vizualizare teste" style="ellipse;whiteSpace=wrap;html=1;" vertex="1" parent="1">
          <mxGeometry x="440" y="495" width="90" height="50" as="geometry" />
        </mxCell>
        <mxCell id="2sXb2ntrMHZdO7eoZhYg-35" value="Rezolvare test" style="ellipse;whiteSpace=wrap;html=1;" vertex="1" parent="1">
          <mxGeometry x="440" y="570" width="90" height="50" as="geometry" />
        </mxCell>
        <mxCell id="2sXb2ntrMHZdO7eoZhYg-36" value="Vizualizare rezultate" style="ellipse;whiteSpace=wrap;html=1;" vertex="1" parent="1">
          <mxGeometry x="440" y="640" width="90" height="50" as="geometry" />
        </mxCell>
        <mxCell id="2sXb2ntrMHZdO7eoZhYg-57" value="&lt;div&gt;APLICATIE PROFESOR&lt;/div&gt;" style="text;html=1;align=center;verticalAlign=middle;resizable=0;points=[];autosize=1;strokeColor=none;fillColor=none;" vertex="1" parent="1">
          <mxGeometry x="60" y="270" width="150" height="30" as="geometry" />
        </mxCell>
        <mxCell id="2sXb2ntrMHZdO7eoZhYg-58" value="APLICATIE ELEV" style="text;html=1;align=center;verticalAlign=middle;resizable=0;points=[];autosize=1;strokeColor=none;fillColor=none;" vertex="1" parent="1">
          <mxGeometry x="430" y="270" width="110" height="30" as="geometry" />
        </mxCell>
        <mxCell id="2sXb2ntrMHZdO7eoZhYg-59" value="SERVARUL" style="text;html=1;align=center;verticalAlign=middle;resizable=0;points=[];autosize=1;strokeColor=none;fillColor=none;" vertex="1" parent="1">
          <mxGeometry x="280" y="270" width="90" height="30" as="geometry" />
        </mxCell>
      </root>
    </mxGraphModel>
  </diagram>
</mxfile>
